<?xml version="1.0" encoding="UTF-8" standalone="no"?>
<svg
   width="46.492241mm"
   height="59.498005mm"
   version="1.1"
   desc="Created with imagetracer.js version 1.2.6"
   id="svg665"
   xml:space="preserve"
   sodipodi:docname="capn.svg"
   inkscape:version="1.3.2 (091e20e, 2023-11-25)"
   xmlns:inkscape="http://www.inkscape.org/namespaces/inkscape"
   xmlns:sodipodi="http://sodipodi.sourceforge.net/DTD/sodipodi-0.dtd"
   xmlns="http://www.w3.org/2000/svg"
   xmlns:svg="http://www.w3.org/2000/svg"><sodipodi:namedview
     id="namedview1"
     pagecolor="#ffffff"
     bordercolor="#000000"
     borderopacity="0.25"
     inkscape:showpageshadow="2"
     inkscape:pageopacity="0.0"
     inkscape:pagecheckerboard="0"
     inkscape:deskcolor="#d1d1d1"
     inkscape:document-units="mm"
     inkscape:zoom="2.5666021"
     inkscape:cx="87.859353"
     inkscape:cy="112.40542"
     inkscape:window-width="1392"
     inkscape:window-height="1010"
     inkscape:window-x="0"
     inkscape:window-y="25"
     inkscape:window-maximized="0"
     inkscape:current-layer="svg665" /><defs
     id="defs665" /><g
     id="g701"
     style="display:inline"
     transform="translate(-24.261198,-4.0156674)"><path
       id="use665"
       style="display:inline;opacity:1;fill:#ffffff;fill-opacity:1;stroke:none;stroke-width:1;stroke-dasharray:none;stroke-opacity:1"
       d="m 199.43932,12.022902 -86.18874,66.155441 0.002,53.449597 86.22716,0.005 z" /><path
       id="rect681"
       style="opacity:1;fill:#ee1c22;fill-opacity:1;stroke:none;stroke-width:1.00171;stroke-dasharray:none"
       d="m 145.75325,85.992595 0.002,-32.126864 10.07659,-7.738281 0.005,39.872324 43.61249,-0.0018 0.001,10.000029 -43.61081,-0.0019 V 131.6252 l -10.08542,-0.001 0.002,-35.626455 -32.50234,0.0049 5e-4,-10.001819 z" /><path
       id="path10"
       style="display:inline;opacity:1;fill:none;stroke:#000000;stroke-width:1;stroke-dasharray:none;stroke-opacity:1"
       d="m 199.43932,12.022902 -86.18874,66.155441 0.002,53.449597 86.22716,0.005 z" /></g><g
     id="g700"
     style="display:inline"
     transform="translate(-24.261198,-4.0156674)"><path
       id="use695"
       style="display:inline;fill:#f3ed35;fill-opacity:1;stroke:none;stroke-width:1;stroke-dasharray:none;stroke-opacity:1"
       d="m 111.6238,227.63239 -85.567763,-94.66917 85.567763,0.0416 z" /><path
       id="rect700"
       style="display:inline;opacity:1;fill:#ee1d23;stroke-width:0.973767"
       d="m 41.015625,132.97852 v 16.53515 l 10.078125,11.15039 v -27.68554 z m 17.375,0 v 35.75781 l 10.078125,11.15039 v -46.9043 l -9.814453,-0.004 z m 17.375,0.008 v 54.97461 l 10.078125,11.15039 v -66.11914 z m 17.375,0.11719 v 74.08007 l 10.078125,11.15039 v -85.23046 z" /><path
       id="use666"
       style="display:inline;opacity:1;fill:none;stroke:#000000;stroke-width:1;stroke-dasharray:none;stroke-opacity:1"
       d="m 111.6238,227.63239 -85.567763,-94.66917 85.567763,0.0416 z" /></g><path
     id="path11"
     style="display:inline;fill:#ffffff;fill-opacity:1;stroke:none;stroke-width:1;stroke-dasharray:none;stroke-opacity:1"
     d="M 89.033002,223.57496 174.51314,128.9496 89.032992,128.9476 Z" /><path
     id="use667"
     style="display:inline;fill:none;stroke:#000000;stroke-width:1;stroke-dasharray:none;stroke-opacity:1"
     d="M 89.033002,223.57496 174.51314,128.9496 89.032992,128.9476 Z" /><path
     id="path12"
     style="display:inline;fill:#ffffff;fill-opacity:1;stroke:none;stroke-width:1;stroke-dasharray:none;stroke-opacity:1"
     d="m 1.148447,8.0111406 85.525825,66.1554424 -0.003,53.449597 H 0.50270696 Z" /><path
     id="rect665"
     style="display:inline;fill:none;stroke:#000000;stroke-width:1;stroke-dasharray:none;stroke-opacity:1"
     d="m 1.148447,8.0111406 85.525825,66.1554424 -0.003,53.449597 H 0.50270696 Z" /><g
     id="g10"
     style="display:inline"
     transform="translate(-24.261198,-4.0156674)"><circle
       style="display:inline;fill:#14beef;fill-opacity:1;stroke:#000000;stroke-width:0.188976;stroke-dasharray:none;stroke-opacity:1"
       id="circle8"
       cx="112.19325"
       cy="132.30936"
       r="39.967648" /><circle
       style="display:inline;fill:#ee1d23;fill-opacity:1;stroke:#000000;stroke-width:0.188976;stroke-dasharray:none;stroke-opacity:1"
       id="circle9"
       cx="112.19325"
       cy="132.30936"
       r="32.610039" /><circle
       style="display:inline;fill:#ee1d23;fill-opacity:1;stroke:#000000;stroke-width:0.188976;stroke-dasharray:none;stroke-opacity:1"
       id="circle10"
       cx="112.19325"
       cy="132.30936"
       r="25.069389" /><circle
       style="display:inline;fill:#fef102;fill-opacity:1;stroke:#000000;stroke-width:0.188976;stroke-dasharray:none;stroke-opacity:1"
       id="circle7"
       cx="112.19325"
       cy="132.30936"
       r="15.922832" /><circle
       style="display:inline;fill:#fef102;fill-opacity:1;stroke:#000000;stroke-width:0.188976;stroke-dasharray:none;stroke-opacity:1"
       id="circle6"
       cx="112.19325"
       cy="132.30936"
       r="8.3232279" /><circle
       style="display:inline;fill:#fef102;fill-opacity:1;stroke:#000000;stroke-width:0.188976;stroke-dasharray:none;stroke-opacity:1"
       id="path6"
       cx="112.19325"
       cy="132.30936"
       r="4.2498403" /></g><path
     style="display:inline;fill:#000000;stroke-width:0.106039"
     d="m 21.541554,145.99952 -0.865032,-0.0838 -0.324764,-0.16794 -0.324765,-0.16794 -0.109184,-0.20402 -0.109181,-0.204 v -0.41428 -0.41428 l 0.145089,-0.48209 0.145089,-0.4821 0.387534,-0.50752 c 0.213143,-0.27916 0.527593,-0.7975 0.698778,-1.15187 l 0.311243,-0.64432 0.109303,-0.82097 0.109302,-0.82097 -0.101692,-1.29981 c -0.101613,-1.2988 -0.351968,-5.8501 -0.484129,-8.8012 l -0.07001,-1.56318 -0.208946,-0.39854 -0.208946,-0.39853 -0.05572,-0.58321 -0.05572,-0.58322 0.291424,-1.11341 0.291424,-1.11341 -0.01032,-0.95435 c -0.0057,-0.5249 0.03473,-4.00828 0.0898,-7.74085 l 0.100121,-6.78652 0.274497,-2.70399 0.274498,-2.704 0.423754,-1.69662 c 0.767969,-3.074777 1.152452,-4.752807 1.420237,-6.198416 l 0.264274,-1.426652 0.06067,-0.906212 0.06067,-0.906211 -0.387492,-2.863056 -0.387493,-2.863046 -0.09882,-2.226822 C 23.142697,82.377408 23.04902,80.802733 22.988879,80.102869 L 22.879551,78.830384 22.605823,78.286731 C 22.455272,77.987726 22.12412,77.478101 21.86993,77.154239 l -0.462165,-0.588848 -0.622706,-0.518226 -0.622705,-0.518209 -1.581884,-0.88067 c -3.261906,-1.815969 -4.918315,-3.133542 -5.405629,-4.299842 l -0.169893,-0.406614 0.06549,-0.349052 0.06549,-0.349052 0.442355,-0.37864 0.442352,-0.378629 0.667967,-0.20632 0.667966,-0.206312 0.871256,-0.109247 0.871252,-0.109248 h 1.510567 c 1.868478,0 6.388144,0.175945 8.294135,0.32289 l 1.422044,0.109624 0.08719,-0.08715 0.08719,-0.08715 -0.33893,-0.68578 c 0,0 -0.280772,-0.437515 -0.338929,-0.685781 -0.169299,-0.722716 -0.0027,-2.226831 -0.0027,-2.226831 l -0.0027,-2.226814 0.192757,-0.636241 c 0,0 0.07811,-0.446597 0.192757,-0.636233 0.171159,-0.283098 0.707363,-0.69615 0.707363,-0.69615 0,0 0.437554,-0.50472 0.707362,-0.696159 0.22451,-0.159295 0.49412,-0.242827 0.74118,-0.364232 0.24706,-0.121413 0.472828,-0.302866 0.741181,-0.364239 0.862148,-0.197185 1.7812,-0.129086 2.653165,0.01875 0.239344,0.04055 0.689254,0.235206 0.689254,0.235206 l 0.689254,0.235197 0.530197,0.362847 0.530194,0.362847 0.636235,0.707249 c 0.727244,0.808402 0.892287,1.06166 0.897574,1.377297 l 0.0038,0.224293 -0.237677,0.302158 -0.237676,0.302158 -0.03901,0.772535 -0.03902,0.772535 h 0.09925 0.09925 l 1.814115,-3.737882 c 3.050527,-6.285432 8.310279,-17.080555 9.447327,-19.389708 0.591715,-1.201674 1.075845,-2.207904 1.075845,-2.23607 0,-0.02817 -0.190871,-0.251861 -0.424155,-0.497094 L 48.863328,38.261495 V 38.00712 37.752747 l 0.112066,-0.06926 0.112065,-0.06926 0.279299,0.0701 0.279297,0.07009 0.854595,0.823339 c 0.952735,0.917887 2.968695,2.689028 6.850937,6.018947 l 2.603093,2.232749 0.971803,1.04895 c 1.279328,1.380877 1.982208,2.267194 3.006941,3.791667 l 0.845728,1.258171 0.677078,1.392806 0.67709,1.392811 0.273434,0.837277 c 0.150392,0.4605 0.365309,1.295554 0.477603,1.855682 l 0.204174,1.018401 0.161948,2.704004 c 0.08907,1.487195 0.193018,3.527123 0.230987,4.533175 l 0.06903,1.829167 h 3.471326 3.471312 l 0.333951,0.116413 0.333931,0.116412 v 0.09829 0.09829 l -0.291602,0.121036 -0.291613,0.121029 -3.47277,0.04703 -3.472783,0.04704 v 0.07401 c 0,0.04073 0.202798,0.118996 0.450668,0.17394 l 0.45066,0.09989 v 0.377606 0.377587 l 0.185574,0.186692 0.185566,0.186674 v 0.198245 0.198254 l -0.106329,0.06569 -0.106324,0.06569 0.106324,0.198674 c 0.05848,0.109265 0.106329,0.311556 0.106329,0.449532 v 0.250858 l -0.117027,0.117025 -0.117027,0.117033 0.100389,0.179388 0.100388,0.179387 -0.05093,0.266378 -0.05093,0.266388 -0.462637,0.279437 -0.462636,0.279447 -0.0012,1.326252 c -0.0018,1.472583 -0.14614,4.696068 -0.323298,7.211437 l -0.115761,1.643606 -0.203692,1.023044 -0.203692,1.023035 -0.378979,1.088794 c -0.884953,2.542391 -2.486386,5.118397 -4.876443,7.844028 -1.094167,1.247799 -1.426641,1.553539 -5.189834,4.772379 -3.149318,2.693757 -4.353977,3.761197 -5.57242,4.937607 l -0.906703,0.87543 -0.286001,0.0718 -0.286003,0.0718 -0.159294,-0.0611 -0.159295,-0.0611 v -0.2233 -0.22329 l 0.513784,-0.53859 0.513787,-0.5386 -0.714513,-1.65383 c -0.393089,-0.90961 -1.202079,-2.775197 -1.797867,-4.145737 -0.595788,-1.37057 -1.533098,-3.541715 -2.082913,-4.824795 -0.54978,-1.283113 -1.09917,-2.547635 -1.220831,-2.81008 C 44.121113,90.066911 41.351476,83.700714 41.214,83.346266 l -0.09924,-0.255859 -0.09122,0.0968 -0.09122,0.09679 -0.484354,2.757023 c -0.266394,1.516359 -0.681427,3.902233 -0.922297,5.301953 l -0.437943,2.544938 0.06912,0.78633 c 0.09721,1.105908 0.394404,2.485302 1.064278,4.939782 l 0.578803,2.120777 0.265257,1.59059 c 0.583793,3.50065 1.426909,10.47992 1.594825,13.20187 0.128377,2.08102 0.634388,4.7095 1.385611,7.1976 l 0.36424,1.20636 v 0.56585 0.56586 l 0.199497,0.50761 0.199496,0.50762 0.542339,3.44626 c 0.298286,1.89545 0.59527,3.70872 0.659967,4.02948 l 0.117629,0.58323 0.356996,0.86884 0.356994,0.86884 0.112976,0.70719 0.112975,0.70719 0.203483,0.39886 0.203483,0.39886 0.334715,0.28165 c 0.18408,0.1549 0.699137,0.46424 1.144557,0.68741 l 0.809855,0.40578 0.916886,0.65601 0.916884,0.65602 0.126385,0.30511 0.126388,0.30513 -0.03589,0.18271 -0.03589,0.18273 -0.269383,0.20092 -0.269381,0.20091 -1.334264,0.1153 -1.334265,0.11531 -1.259411,-0.11395 -1.25941,-0.11398 -0.636235,-0.22209 -0.636235,-0.22208 -0.641921,0.0677 -0.641923,0.0677 -0.388186,-0.16219 -0.388185,-0.1622 -0.05154,-0.24557 c -0.02835,-0.13506 -0.07053,-1.00907 -0.09372,-1.94221 l -0.04218,-1.69662 -0.642953,-1.64361 c -0.722081,-1.8459 -0.982653,-2.7075 -1.988247,-6.57442 l -0.703175,-2.704 -0.726149,-1.48455 -0.726149,-1.48454 -2.017528,-6.09726 c -2.074369,-6.26903 -2.199428,-6.67751 -3.031601,-9.90216 -0.713114,-2.76328 -1.043306,-3.67084 -1.335543,-3.67084 h -0.10622 l -0.106442,0.27996 c -0.05854,0.15397 -0.177241,0.76238 -0.263773,1.352 -0.08654,0.58962 -0.231492,1.55816 -0.322128,2.15229 -0.09064,0.59415 -0.618199,3.09933 -1.172362,5.56707 -1.631579,7.26557 -3.138456,14.90599 -3.645477,18.48395 -0.123968,0.87482 -0.366692,2.44949 -0.539386,3.49929 l -0.313988,1.90871 -0.06116,1.16643 -0.06117,1.16643 0.349217,0.84831 0.349217,0.8483 0.04593,0.72763 0.04593,0.72762 -0.129559,0.80312 c -0.16582,1.02791 -0.170172,1.03758 -0.581496,1.29181 l -0.346621,0.21421 -1.047874,-0.0144 c -0.576333,-0.008 -1.437141,-0.0521 -1.912908,-0.0983 z M 52.53653,102.1325 c 1.142926,-0.97689 2.281067,-1.94317 2.529193,-2.147287 4.306634,-3.54291 6.194332,-5.488252 8.128913,-8.377101 l 0.745619,-1.113416 0.682845,-1.378508 0.68284,-1.378506 0.30545,-0.954349 c 0.167994,-0.524892 0.38542,-1.312229 0.483172,-1.749648 l 0.177726,-0.79529 0.0557,-2.544948 0.0557,-2.544929 -0.175183,-1.431533 c -0.09634,-0.787337 -0.235226,-1.693969 -0.308616,-2.014747 l -0.133445,-0.583208 -0.153968,0.01471 c -0.08468,0.0079 -0.562421,0.13513 -1.061645,0.282328 -0.499224,0.147208 -2.169343,0.554549 -3.711366,0.905213 -4.608016,1.047865 -8.525381,1.724642 -11.074744,1.913313 l -1.27247,0.09418 -2.173803,-0.05412 -2.173801,-0.05412 -0.683259,0.175463 -0.683259,0.175464 -0.363433,0.277203 -0.363433,0.277204 -0.240653,0.541534 -0.240653,0.541542 -0.237133,1.17492 -0.237131,1.174927 1.538212,3.543817 c 0.846017,1.949101 1.703303,3.925558 1.905078,4.392125 2.454926,5.67657 5.845438,13.413947 5.877982,13.413947 0.02285,0 0.976674,-0.79927 2.119605,-1.77614 z m 2.954261,-30.011145 8.271052,-0.09403 0.224088,-0.120241 0.224081,-0.120221 0.05833,-0.434817 0.05832,-0.434818 0.279392,-0.571059 0.279394,-0.57105 0.206985,-0.06569 0.206984,-0.06569 v -0.151912 -0.15192 l -0.23859,-0.0027 c -1.72472,-0.01936 -8.805997,0.03267 -14.925007,0.109737 l -7.687835,0.09681 -1.051499,0.165926 c -1.216574,0.191973 -2.529664,0.244438 -3.707348,0.283107 -0.14383,0.0044 -0.274004,-0.125206 -0.356995,-0.242773 -0.03935,-0.0558 -0.05179,-0.198052 -0.05179,-0.198052 l -0.332259,0.0027 -0.332261,0.0027 -0.185568,0.372884 c -0.102062,0.205085 -0.185568,0.443682 -0.185568,0.530217 v 0.157324 l 0.238587,0.08818 c 0.131224,0.04853 0.640632,0.120713 1.132017,0.160469 l 0.893428,0.07226 1.916608,0.366289 c 1.054136,0.20145 2.441503,0.506454 3.08304,0.677775 l 1.166429,0.311503 1.27247,-0.03941 c 0.699857,-0.02163 4.994443,-0.08172 9.543521,-0.133395 z M 37.305082,68.411517 c 0.06042,-0.128674 0.186024,-0.274244 0.328164,-0.27236 0.461889,0.0061 1.466861,0.128516 1.466861,0.128516 0.806774,0.07068 2.009383,0.209631 2.672465,0.308762 l 1.205602,0.180245 11.187132,-0.12052 c 6.152919,-0.0663 11.193389,-0.125933 11.201043,-0.132546 0.04913,-0.04248 0.264009,-1.088067 0.427402,-2.079789 l 0.192176,-1.166432 -0.0029,-2.91608 -0.0029,-2.916071 -0.235181,-1.080369 c -0.129351,-0.594208 -0.382488,-1.500845 -0.562519,-2.014749 l -0.32734,-0.934375 -0.708416,-1.378507 C 63.05002,51.883133 61.792134,50.114274 59.872879,48.007275 l -0.813552,-0.893107 -1.678395,-1.444939 c -0.923113,-0.794715 -2.704324,-2.314437 -3.958232,-3.377163 -1.253914,-1.062719 -2.303701,-1.960947 -2.332862,-1.996065 -0.138864,-0.167215 -1.183223,-0.98358 -1.215542,-0.950176 -0.02023,0.0209 -0.382052,0.753784 -0.804052,1.628608 -0.421999,0.874824 -2.842762,5.861313 -5.379472,11.08109 -2.536711,5.21977 -5.133071,10.564151 -5.769693,11.87638 l -1.15749,2.38588 0.231961,0.495726 c 0,0 0.225461,0.313403 0.23196,0.495734 5.21e-4,0.01428 0.04932,0.231089 -0.121868,0.317581 -0.07364,0.03723 -0.245072,0.03469 -0.245072,0.03469 l -0.245072,0.03469 -0.03205,0.556703 -0.03205,0.556703 h 0.376678 0.376679 c 0.0079,-0.134341 -0.01672,-0.26644 0,-0.398188 z"
     id="path1493" /><path
     style="fill:#000003;fill-opacity:1;stroke:none;stroke-width:1;stroke-dasharray:none;stroke-opacity:1"
     d="m 141.63665,165.35631 -5.61111,-9.4664 -0.006,12.35226 -8.08675,-12.35282 -0.003,14.6517 -9.95284,-14.68429 -0.0194,29.58799 -4.59351,-0.005 -6.00472,-47.97846 -10.176948,0.021 -8.18419,60.48363 -0.008,25.61215 z"
     id="path691" /><g
     id="g3"
     style="display:inline;stroke-width:1.13386;stroke-dasharray:none"
     transform="translate(-24.971897,-2.0156674)"><path
       style="font-size:16px;font-family:Cinzel;-inkscape-font-specification:Cinzel;text-align:center;letter-spacing:1px;text-anchor:middle;stroke:#ffffff;stroke-width:1.13386;stroke-dasharray:none;fill:#ffffff;fill-opacity:1;stroke-opacity:1"
       d="m 54.503023,14.220223 q -2.619361,-0.01598 -4.277184,-1.61456 -1.641246,-1.598575 -1.641246,-4.2042523 0,-2.6216631 1.641246,-4.2202381 1.657823,-1.5985751 4.376653,-1.5985751 2.221483,0 3.929042,1.0870311 l 0.331564,2.2539908 H 58.713894 Q 58.349173,4.5488449 57.238431,3.8135004 56.12769,3.0621701 54.602492,3.0621701 q -2.171749,0 -3.481428,1.4547033 -1.293103,1.4547032 -1.293103,3.8525658 0,2.3978618 1.276524,3.8685518 1.293102,1.454703 3.398538,1.50266 1.856763,0 3.100129,-0.97513 1.342838,-1.05506 1.624668,-3.4369368 h 0.132625 l -0.198938,2.5097628 q -1.50862,2.381876 -4.658484,2.381876 z m 7.866376,-0.383657 q 0.397878,0 0.66313,-0.239787 0.28183,-0.255771 0.298408,-0.607457 V 5.4280611 Q 63.314359,5.0763746 63.01595,4.8206027 62.73412,4.5648307 62.336243,4.5648307 H 62.137304 V 4.4049731 h 3.431694 v 0.1598576 h -0.198939 q -0.397878,0 -0.696286,0.255772 -0.281829,0.2557719 -0.281829,0.6074584 v 8.0728039 h 2.586204 q 0.762599,0 1.293102,-0.255772 0.530504,-0.255771 0.795756,-0.607459 0.28183,-0.351686 0.547082,-0.927173 h 0.165781 l -0.911802,2.285963 H 62.137304 V 13.836566 Z M 81.74107,4.5648307 h -0.248674 q -0.447612,0 -0.679708,0.3357007 -0.09947,0.1438717 -0.116047,0.3357007 V 10.62343 q 0,1.662518 -1.110742,2.637648 -1.094164,0.959145 -3.017238,0.959145 -1.923076,0 -3.033818,-0.959145 -1.110742,-0.959145 -1.110742,-2.621662 V 5.2522178 q 0,-0.2877435 -0.232094,-0.4795724 -0.232095,-0.2078147 -0.56366,-0.2078147 H 71.379673 V 4.4049731 h 3.149864 v 0.1598576 h -0.248673 q -0.331565,0 -0.56366,0.2078147 -0.232095,0.1918289 -0.232095,0.4795724 v 5.1953682 q 0,1.550618 0.812333,2.44582 0.828912,0.895202 2.320953,0.895202 1.508619,0 2.403844,-0.847245 0.911803,-0.847244 0.911803,-2.317933 V 5.2522178 Q 79.917463,4.9484886 79.685368,4.7566597 79.469851,4.5648307 79.138286,4.5648307 H 78.889613 V 4.4049731 h 2.851457 z m 9.109751,1.1669597 q 0.248673,0.4635867 0.248673,1.1190025 0,0.6554158 -0.547081,1.2149171 -0.547082,0.5435154 -1.276524,0.7193587 1.210211,0.127886 1.989387,0.8472448 0.795756,0.7193585 0.795756,1.5825895 0,0.847245 -0.348143,1.39076 -0.331565,0.543516 -0.895224,0.831259 -1.077585,0.559502 -2.437001,0.559502 h -4.111402 v -0.159858 h 0.198939 q 0.414456,0 0.696286,-0.239787 0.28183,-0.255771 0.298408,-0.623443 V 5.4280611 Q 85.446317,4.9005314 84.965548,4.6767309 84.750031,4.5648307 84.468201,4.5648307 H 84.269262 V 4.4049731 h 3.38196 q 2.470157,0 3.199599,1.3268173 z m 0.03315,5.5790266 q 0,-2.3818766 -3.862728,-2.3818766 V 8.7690829 q 2.917769,0 2.917769,-1.9662472 0,-1.91829 -2.304374,-1.91829 H 86.50732 v 8.6323053 h 1.856763 q 1.12732,0 1.823606,-0.543515 0.696285,-0.559502 0.696285,-1.662519 z m 20.009929,2.525749 h 0.13263 v 0.159858 h -3.73011 v -0.159858 h 0.1492 q 0.34815,0 0.51393,-0.207815 0.18236,-0.2238 0.18236,-0.41563 0,-0.191828 -0.0663,-0.383657 l -1.06101,-2.717578 h -4.47612 l -1.11075,2.733563 q -0.0663,0.19183 -0.0663,0.383658 0,0.175844 0.16578,0.399644 0.18235,0.207815 0.5305,0.207815 h 0.1492 v 0.159858 h -3.332226 v -0.159858 h 0.149204 q 0.414455,0 0.812333,-0.255773 0.397879,-0.255771 0.646549,-0.751329 l 3.74669,-8.6003341 q 0.6134,-1.2948458 0.6134,-1.6465324 h 0.1492 l 4.44296,10.2468665 q 0.2321,0.495558 0.62998,0.751329 0.39788,0.255773 0.82891,0.255773 z m -8.15649,-4.2042525 h 4.07825 l -1.98939,-5.1314258 z m 13.13825,-4.7317821 h -0.87864 v 8.0728046 q 0.0165,0.495557 0.46418,0.75133 0.21552,0.1119 0.48077,0.1119 h 0.21552 l 0.0166,0.159858 h -3.39853 v -0.159858 h 0.2321 q 0.3813,0 0.64655,-0.239787 0.28183,-0.255771 0.28183,-0.607457 V 5.3960896 q 0,-0.3516865 -0.28183,-0.5914727 -0.26525,-0.2397862 -0.64655,-0.2397862 h -0.2321 V 4.4049731 h 4.16113 q 1.55836,0 2.45358,0.6873872 0.9118,0.6873873 0.9118,1.8063899 0,1.1190025 -0.72943,1.8703327 -0.72945,0.7513303 -1.85677,0.8632306 0.53051,0.2238005 1.27652,1.2468885 -0.0165,0 0.56367,0.703373 0.59681,0.703373 0.94496,1.103017 0.36471,0.383658 0.59681,0.591472 0.6134,0.559502 1.40916,0.559502 v 0.159858 h -0.51393 q -1.30968,0 -2.05571,-0.495559 -0.56366,-0.367672 -1.02784,-0.911188 -0.0994,-0.127886 -0.8455,-1.119002 -0.72944,-1.007102 -0.77917,-1.071046 -0.89523,-1.0710448 -1.67441,-1.0710448 V 9.1687267 q 1.93966,0 2.33754,-0.191829 0.54708,-0.2717578 0.74602,-0.575487 0.41445,-0.63943 0.41445,-1.406746 0,-0.9751308 -0.59681,-1.5026606 -0.59682,-0.5275298 -1.60809,-0.5754869 -0.44762,-0.015986 -1.02785,-0.015986 z m 22.63759,11.5417126 q 2.51989,0 3.94562,-1.262875 l 0.0498,0.06395 q -0.11605,0.287744 -0.49735,0.655416 -0.36472,0.367672 -1.02784,0.75133 -1.34285,0.735345 -2.81831,0.735345 -1.50862,0 -2.98408,-0.607459 -0.61339,-0.239786 -1.8236,-0.847245 -2.88462,-1.454703 -4.26061,-1.710476 -2.37069,0 -3.9622,-1.406745 -1.59151,-1.406746 -1.59151,-3.6127798 0,-1.087031 0.43104,-2.0301903 0.43103,-0.9431593 1.16047,-1.598575 0.74603,-0.6554158 1.75729,-1.023088 1.01128,-0.3676723 2.32096,-0.3676723 1.32626,0 2.56963,0.6394301 1.25994,0.6234442 1.98939,1.7744182 0.72943,1.1509741 0.72943,2.6056773 0,1.8543468 -1.16048,3.1811648 -1.14389,1.310831 -2.98408,1.694489 1.42574,0.399644 4.92374,1.742447 1.60809,0.623445 3.23276,0.623445 z M 125.98011,5.9396051 q -1.21021,1.2628743 -1.21021,3.2610931 0,1.9982188 1.21021,3.2770788 1.22678,1.262874 3.03381,1.262874 1.82361,0 3.05039,-1.262874 1.22679,-1.27886 1.22679,-3.2770788 0,-1.9982188 -1.22679,-3.2610931 -1.22678,-1.2788599 -3.05039,-1.2788599 -1.80703,0 -3.03381,1.2788599 z m 21.51026,-1.3747744 h -0.24868 q -0.4476,0 -0.6797,0.3357007 -0.0994,0.1438717 -0.11605,0.3357007 V 10.62343 q 0,1.662518 -1.11074,2.637648 -1.09416,0.959145 -3.01724,0.959145 -1.92307,0 -3.03381,-0.959145 -1.11074,-0.959145 -1.11074,-2.621662 V 5.2522178 q 0,-0.2877435 -0.2321,-0.4795724 -0.2321,-0.2078147 -0.56366,-0.2078147 h -0.24867 V 4.4049731 h 3.14986 v 0.1598576 h -0.24868 q -0.33156,0 -0.56366,0.2078147 -0.23209,0.1918289 -0.23209,0.4795724 v 5.1953682 q 0,1.550618 0.81234,2.44582 0.82891,0.895202 2.32095,0.895202 1.50861,0 2.40384,-0.847245 0.91181,-0.847244 0.91181,-2.317933 V 5.2522178 q -0.0166,-0.3037292 -0.24868,-0.4955581 -0.21552,-0.191829 -0.54708,-0.191829 h -0.24867 V 4.4049731 h 2.85145 z m 2.76029,9.2717353 q 0.39788,0 0.66313,-0.239787 0.28183,-0.255771 0.29841,-0.607457 V 5.3960896 q 0,-0.3516865 -0.28183,-0.5914727 -0.28183,-0.2397862 -0.67971,-0.2397862 h -0.2321 V 4.4049731 h 4.84085 q 0.6797,0 1.19363,-0.095914 0.51393,-0.095914 0.66313,-0.1598575 v 1.8223755 l -0.18236,-0.015986 V 5.7158046 q 0,-0.3357008 -0.2321,-0.575487 -0.23209,-0.2397862 -0.59682,-0.2397862 h -3.44826 v 4.0603805 h 2.83487 q 0.33156,0 0.49735,-0.191829 0.18236,-0.191829 0.18236,-0.4795724 V 8.0816957 h 0.18236 v 2.2380053 h -0.18236 v -0.207815 q 0,-0.447601 -0.34815,-0.6074585 -0.13262,-0.047957 -0.28183,-0.063943 h -2.8846 v 4.0603805 h 2.60278 q 0.7626,0 1.27652,-0.255772 0.53051,-0.255771 0.79576,-0.607459 0.28183,-0.351686 0.56366,-0.927173 h 0.16578 l -0.91181,2.285963 h -6.73076 v -0.159858 z m 12.79009,-8.9360346 h -0.87864 v 8.0728046 q 0.0166,0.495557 0.46419,0.75133 0.21552,0.1119 0.48077,0.1119 h 0.21551 l 0.0166,0.159858 h -3.39854 v -0.159858 h 0.2321 q 0.3813,0 0.64656,-0.239787 0.28182,-0.255771 0.28182,-0.607457 V 5.3960896 q 0,-0.3516865 -0.28182,-0.5914727 -0.2653,-0.2397862 -0.6466,-0.2397862 h -0.2321 V 4.4049731 h 4.16114 q 1.55836,0 2.45358,0.6873872 0.9118,0.6873873 0.9118,1.8063899 0,1.1190025 -0.72944,1.8703327 -0.72945,0.7513303 -1.85676,0.8632306 0.5305,0.2238005 1.27652,1.2468885 -0.0166,0 0.56367,0.703373 0.59681,0.703373 0.94495,1.103017 0.36472,0.383658 0.59682,0.591472 0.6134,0.559502 1.40915,0.559502 v 0.159858 h -0.51393 q -1.30968,0 -2.0557,-0.495559 -0.56366,-0.367672 -1.02785,-0.911188 -0.0994,-0.127886 -0.84549,-1.119002 -0.72944,-1.007102 -0.77917,-1.071046 -0.89523,-1.0710448 -1.67441,-1.0710448 V 9.1687267 q 1.93966,0 2.33754,-0.191829 0.54708,-0.2717578 0.74601,-0.575487 0.41446,-0.63943 0.41446,-1.406746 0,-0.9751308 -0.59681,-1.5026606 -0.59683,-0.5275298 -1.60809,-0.5754869 -0.44762,-0.015986 -1.02786,-0.015986 z m 8.38031,8.5683616 q -0.0498,-0.191829 -0.0498,-0.783301 0,-0.591473 0.21552,-1.198931 h 0.19894 q -0.0166,0.143871 -0.0166,0.287743 0,0.86323 0.58025,1.422732 0.59681,0.543515 1.64124,0.543515 1.09416,0 1.70756,-0.479573 0.61339,-0.495557 0.61339,-1.262874 0,-0.783301 -0.59681,-1.294846 L 172.3991,8.2415533 q -0.79576,-0.6554158 -0.79576,-1.7584326 0,-0.6234443 0.34815,-1.1509741 0.36471,-0.5275297 0.99469,-0.8312589 0.64655,-0.3197151 1.50862,-0.3197151 0.86207,0 1.5252,0.1438718 h 0.54708 l 0.0331,1.7424467 h -0.18235 q 0,-0.6714015 -0.48078,-1.0390738 -0.48077,-0.3676721 -1.37599,-0.3676721 -0.89523,0 -1.47546,0.4476009 -0.58025,0.4316153 -0.58025,1.1349883 0,0.6873873 0.64656,1.1989313 l 3.3488,2.493777 q 0.7626,0.6074583 0.7626,1.6944893 0,1.087032 -0.86206,1.838361 -0.8455,0.75133 -2.07229,0.75133 -0.81233,0 -1.62466,-0.191828 -0.81233,-0.191829 -1.24337,-0.559502 z"
       id="text1"
       aria-label="Club Arquers" /><path
       style="font-size:16px;font-family:Cinzel;-inkscape-font-specification:Cinzel;text-align:center;letter-spacing:1px;text-anchor:middle;stroke:#ffffff;stroke-width:1.13386;stroke-dasharray:none;fill:#ffffff;fill-opacity:1;stroke-opacity:1"
       d="m 75.430311,22.182583 q 0,0.703547 -0.29367,1.311155 -0.538394,1.135269 -1.892537,1.58298 -0.473134,0.159897 -0.815749,0.159897 -1.011528,0 -1.745702,-0.367763 v -0.159897 q 1.190994,0.255835 2.202522,-0.255835 0.897324,-0.447712 1.223622,-1.471052 0.09789,-0.319794 0.09789,-0.607609 0,-0.287815 0,-0.351773 -0.03263,-1.119279 -0.603653,-1.774856 -0.571024,-0.671568 -1.598867,-0.671568 h -1.876222 v 9.545849 q 0.01632,0.415732 0.309985,0.719536 0.309983,0.287815 0.734173,0.287815 h 0.212095 v 0.159897 h -3.572979 v -0.159897 h 0.212095 q 0.424189,0 0.717859,-0.287815 0.309983,-0.303804 0.326298,-0.719536 v -8.93824 q -0.04895,-0.399742 -0.342613,-0.655578 -0.29367,-0.271825 -0.701544,-0.271825 h -0.19578 l -0.01631,-0.159896 h 4.258208 q 1.566237,0 2.46356,0.831464 0.897324,0.815474 0.897324,2.254547 z m 5.179988,-1.071309 q 1.256253,-0.639588 2.75723,-0.639588 1.517293,0 2.773545,0.639588 1.256252,0.623597 1.990427,1.774856 0.750488,1.151258 0.750488,2.60632 0,1.455062 -0.750488,2.60632 -0.734175,1.151259 -1.990427,1.790846 -1.256252,0.623598 -2.577765,0.623598 -1.321513,0 -2.333041,-0.367763 -1.011528,-0.367763 -1.762017,-1.02334 -0.734174,-0.655578 -1.174678,-1.598969 -0.424189,-0.943393 -0.424189,-2.206579 0,-1.279175 0.734174,-2.430433 0.750488,-1.151259 2.006741,-1.774856 z m -0.309984,7.659063 q 1.239938,1.263187 3.067214,1.263187 1.827277,0 3.067215,-1.263187 1.239937,-1.279175 1.239937,-3.277887 0,-1.998712 -1.239937,-3.261898 -1.239938,-1.279176 -3.067215,-1.279176 -1.827276,0 -3.067214,1.279176 -1.223623,1.263186 -1.223623,3.261898 0,1.998712 1.223623,3.277887 z m 17.530449,-6.747651 q 0.244724,0.463701 0.244724,1.119278 0,0.655578 -0.538394,1.215218 -0.538393,0.543649 -1.256253,0.719536 1.190993,0.127917 1.957797,0.847454 0.783111,0.719536 0.783111,1.58298 0,0.847453 -0.34261,1.391104 -0.326296,0.543649 -0.881005,0.831463 -1.060473,0.55964 -2.398301,0.55964 H 91.35372 v -0.159897 h 0.19578 q 0.407875,0 0.685229,-0.239846 0.277354,-0.255835 0.293669,-0.623598 V 21.718881 Q 92.512088,21.191222 92.03895,20.967366 91.826855,20.855438 91.5495,20.855438 h -0.19578 v -0.159897 h 3.328254 q 2.430931,0 3.14879,1.327145 z m 0.03263,5.580404 q 0,-2.382465 -3.801389,-2.382465 v -0.159897 q 2.871436,0 2.871436,-1.966733 0,-1.918763 -2.267782,-1.918763 h -1.109417 v 8.634436 h 1.827277 q 1.109417,0 1.794646,-0.54365 0.685229,-0.559639 0.685229,-1.662928 z m 4.037956,2.526372 q 0.39156,0 0.6526,-0.239846 0.27735,-0.255835 0.29367,-0.607608 v -7.563127 q -0.0163,-0.351773 -0.30999,-0.607607 -0.27735,-0.255836 -0.66891,-0.255836 h -0.19578 v -0.159897 h 3.37719 v 0.159897 h -0.19578 q -0.39156,0 -0.68523,0.255836 -0.27736,0.255834 -0.27736,0.607607 v 8.074797 h 2.54514 q 0.75049,0 1.27257,-0.255835 0.52208,-0.255835 0.78312,-0.607608 0.27735,-0.351773 0.53839,-0.927403 h 0.16315 l -0.89732,2.286527 h -6.62387 v -0.159897 z m 9.37294,0 q 0.39155,0 0.65259,-0.239846 0.27735,-0.255835 0.29367,-0.607608 v -7.595106 q 0,-0.351773 -0.27736,-0.591619 -0.27735,-0.239845 -0.6689,-0.239845 h -0.22841 v -0.159897 h 4.76396 q 0.66892,0 1.17468,-0.09594 0.50577,-0.09594 0.6526,-0.159897 v 1.822826 l -0.17946,-0.01599 v -0.239846 q 0,-0.335783 -0.22841,-0.575629 -0.22841,-0.239845 -0.58734,-0.239845 h -3.39352 v 4.061382 h 2.78986 q 0.3263,0 0.48945,-0.191876 0.17947,-0.191876 0.17947,-0.479691 V 24.37317 h 0.17946 v 2.238558 h -0.17946 v -0.207865 q 0,-0.447712 -0.34262,-0.607609 -0.13052,-0.04797 -0.27735,-0.06396 h -2.83881 v 4.061382 h 2.56145 q 0.75049,0 1.25626,-0.255835 0.52208,-0.255835 0.78312,-0.607608 0.27735,-0.351773 0.5547,-0.927403 h 0.16315 l -0.89732,2.286527 h -6.62387 V 30.12946 Z m 20.6629,-9.274024 q -0.35893,0 -0.61997,0.239845 -0.26104,0.223856 -0.27736,0.55964 v 6.81161 q 0,0.927403 0.11421,1.758867 l 0.0326,0.287814 h -0.14684 l -8.48379,-7.882919 v 6.667703 q 0,0.351773 0.26104,0.591618 0.26104,0.239846 0.63629,0.239846 h 0.27735 v 0.159897 h -3.08353 v -0.159897 h 0.27735 q 0.37525,0 0.63629,-0.239846 0.26104,-0.239845 0.26104,-0.591618 v -6.843591 q 0,-0.97537 -0.11421,-1.742877 l -0.0327,-0.255834 0.17947,0.01599 8.46747,7.818961 v -6.635724 q -0.0327,-0.335784 -0.29367,-0.55964 -0.26104,-0.239845 -0.61997,-0.239845 h -0.27735 v -0.159897 h 3.08353 v 0.159897 z m 5.34315,0.255836 q 1.25625,-0.639588 2.75723,-0.639588 1.51729,0 2.77354,0.639588 1.25626,0.623597 1.99043,1.774856 0.75048,1.151258 0.75048,2.60632 0,1.455062 -0.75048,2.60632 -0.73417,1.151259 -1.99043,1.790846 -1.25625,0.623598 -2.57776,0.623598 -1.32152,0 -2.33304,-0.367763 -1.01153,-0.367763 -1.76202,-1.02334 -0.73418,-0.655578 -1.17468,-1.598969 -0.42419,-0.943393 -0.42419,-2.206579 0,-1.279175 0.73417,-2.430433 0.75049,-1.151259 2.00675,-1.774856 z m -0.30999,7.659063 q 1.23994,1.263187 3.06722,1.263187 1.82728,0 3.06721,-1.263187 1.23994,-1.279175 1.23994,-3.277887 0,-1.998712 -1.23994,-3.261898 -1.23993,-1.279176 -3.06721,-1.279176 -1.82728,0 -3.06722,1.279176 -1.22362,1.263186 -1.22362,3.261898 0,1.998712 1.22362,3.277887 z m 21.0871,-7.914899 h -0.24473 q -0.4405,0 -0.66891,0.335784 -0.0979,0.143907 -0.1142,0.335784 v 5.388527 q 0,1.662929 -1.09311,2.638299 -1.07679,0.959382 -2.96931,0.959382 -1.89254,0 -2.98565,-0.959382 -1.0931,-0.959381 -1.0931,-2.622309 v -5.388528 q 0,-0.287814 -0.22841,-0.479691 -0.22841,-0.207866 -0.55471,-0.207866 h -0.24472 v -0.159897 h 3.09984 v 0.159897 h -0.24472 q -0.3263,0 -0.55471,0.207866 -0.22841,0.191877 -0.22841,0.479691 v 5.196651 q 0,1.551001 0.79943,2.446423 0.81575,0.895424 2.2841,0.895424 1.48465,0 2.36566,-0.847454 0.89733,-0.847454 0.89733,-2.318506 v -5.372538 q -0.0163,-0.303804 -0.24473,-0.495681 -0.21209,-0.191876 -0.53839,-0.191876 h -0.24473 v -0.159897 h 2.80618 z"
       id="text2"
       aria-label="Poblenou" /></g></svg>
